<svg preserveAspectRatio="none" overflow="visible" style="display: block;" width="27.9618" height="27.9778" viewBox="0 0 27.9618 27.9778" fill="none" xmlns="http://www.w3.org/2000/svg">
<path id="Vector" fill-rule="evenodd" clip-rule="evenodd" d="M13.1043 0.0114688L12.4288 0.0814688C9.15106 0.408719 5.84881 2.09922 3.61581 4.59472C1.14656 7.35447 -0.108187 10.7792 0.00731342 14.428C0.208563 20.7297 4.53981 26.0655 10.6841 27.5845C12.493 28.0217 14.3709 28.0952 16.2085 27.8008C18.0461 27.5064 19.807 26.8499 21.3888 25.8695C24.4999 23.931 26.7267 20.8498 27.5908 17.2875C27.8918 16.0607 27.9618 15.436 27.9618 13.9852C27.9618 12.5345 27.8918 11.9097 27.5908 10.683C26.2048 5.02172 21.5428 0.856719 15.7416 0.0972188C15.2446 0.0324688 13.4368 -0.0252812 13.1043 0.0114688ZM15.4843 2.72047C16.6932 2.87416 17.8682 3.22719 18.9616 3.76522C20.1831 4.36022 21.0266 4.96572 22.0188 5.95797C22.9278 6.83672 23.6707 7.87243 24.2116 9.01522C24.9903 10.6165 25.3421 12.1617 25.3421 13.9852C25.3652 15.7261 24.969 17.4469 24.1871 19.0025C23.8861 19.6167 23.2788 20.602 22.9953 20.9362L22.8991 21.05L14.9138 13.063L6.92681 5.07772L7.04056 4.98147C7.37481 4.69797 8.36006 4.09072 8.97431 3.78972C10.9891 2.79193 13.2562 2.41955 15.4843 2.72047ZM13.0816 14.9197L21.0616 22.9015L20.9443 22.9942C20.3338 23.4447 19.6863 23.8427 19.0088 24.1842C17.9119 24.7198 16.7391 25.0834 15.5316 25.2622C14.7896 25.376 13.1936 25.376 12.4516 25.2622C9.04256 24.7442 6.16556 22.884 4.35431 20.0245C3.90878 19.2858 3.53715 18.505 3.24481 17.6935C2.55733 15.6735 2.44285 13.5026 2.91406 11.4215C3.27563 9.91702 3.92713 8.49753 4.83206 7.24247C4.95456 7.07622 5.06481 6.93972 5.07881 6.93972C5.09281 6.93972 8.69256 10.5307 13.0816 14.9197Z" fill="#E6E6E7"/>
</svg>
